<svg width="17" height="17" viewBox="0 0 17 17" fill="none" xmlns="http://www.w3.org/2000/svg">
<path fill-rule="evenodd" clip-rule="evenodd" d="M13.619 12.3809L16.765 15.5236C17.0818 15.861 17.0818 16.3883 16.7439 16.7469C16.5961 16.9156 16.385 17 16.1527 17C15.9416 17 15.7304 16.9156 15.5615 16.7469L12.4154 13.6042C11.0641 14.6799 9.37491 15.2705 7.64351 15.2705C5.59538 15.2705 3.67395 14.469 2.23815 13.0347C0.802357 11.5794 0 9.68114 0 7.63524C0 5.58933 0.802357 3.66998 2.23815 2.23573C3.69506 0.801489 5.59538 0 7.64351 0C9.69163 0 11.6131 0.801489 13.0489 2.23573C15.7938 4.95658 16.026 9.38586 13.619 12.3809ZM11.8665 11.8113C12.9856 10.6935 13.5979 9.19594 13.5979 7.61405C13.5979 6.03217 12.9856 4.53465 11.8665 3.41678C10.7474 2.29892 9.24826 1.68726 7.66466 1.68726C6.08106 1.68726 4.58192 2.29892 3.46285 3.41678C2.34377 4.53465 1.73145 6.03217 1.73145 7.61405C1.73145 9.19594 2.34377 10.6935 3.46285 11.8113C4.58192 12.9292 6.08106 13.5409 7.66466 13.5409C9.24826 13.5409 10.7474 12.9292 11.8665 11.8113Z" fill="#195270"/>
</svg>
